solid ASCII
  facet normal -7.071068e-01 -1.847168e-16 7.071068e-01
    outer loop
      vertex   -5.000000e-01 1.625000e+00 6.275000e-01
      vertex   -1.000000e+00 1.625000e+00 1.275000e-01
      vertex   -5.000000e-01 1.200000e+00 6.275000e-01
    endloop
  endfacet
  facet normal -7.071068e-01 -9.235838e-17 7.071068e-01
    outer loop
      vertex   -5.000000e-01 1.200000e+00 6.275000e-01
      vertex   -1.000000e+00 1.625000e+00 1.275000e-01
      vertex   -1.000000e+00 1.200000e+00 1.275000e-01
    endloop
  endfacet
  facet normal -2.220446e-15 -2.612289e-16 1.000000e+00
    outer loop
      vertex   -5.000000e-01 1.625000e+00 6.275000e-01
      vertex   -5.000000e-01 1.200000e+00 6.275000e-01
      vertex   -2.500000e-01 1.625000e+00 6.275000e-01
    endloop
  endfacet
  facet normal 4.440892e-16 -1.828603e-15 1.000000e+00
    outer loop
      vertex   -2.500000e-01 1.625000e+00 6.275000e-01
      vertex   -5.000000e-01 1.200000e+00 6.275000e-01
      vertex   -2.500000e-01 1.200000e+00 6.275000e-01
    endloop
  endfacet
  facet normal 1.776357e-15 -1.000000e+00 -1.776357e-15
    outer loop
      vertex   -5.000000e-01 1.200000e+00 6.275000e-01
      vertex   -1.000000e+00 1.200000e+00 1.275000e-01
      vertex   -2.500000e-01 1.200000e+00 6.275000e-01
    endloop
  endfacet
  facet normal 0.000000e+00 -1.000000e+00 8.881784e-16
    outer loop
      vertex   -2.500000e-01 1.200000e+00 6.275000e-01
      vertex   -1.000000e+00 1.200000e+00 1.275000e-01
      vertex   1.000000e+00 1.200000e+00 1.275000e-01
    endloop
  endfacet
  facet normal 0.000000e+00 -1.000000e+00 8.881784e-16
    outer loop
      vertex   -2.500000e-01 1.200000e+00 6.275000e-01
      vertex   1.000000e+00 1.200000e+00 1.275000e-01
      vertex   2.500000e-01 1.200000e+00 6.275000e-01
    endloop
  endfacet
  facet normal -1.776357e-15 -1.000000e+00 -1.776357e-15
    outer loop
      vertex   2.500000e-01 1.200000e+00 6.275000e-01
      vertex   1.000000e+00 1.200000e+00 1.275000e-01
      vertex   5.000000e-01 1.200000e+00 6.275000e-01
    endloop
  endfacet
  facet normal 0.000000e+00 -1.000000e+00 0.000000e+00
    outer loop
      vertex   -1.000000e+00 1.200000e+00 1.275000e-01
      vertex   -1.000000e+00 1.200000e+00 1.468270e-16
      vertex   1.000000e+00 1.200000e+00 1.275000e-01
    endloop
  endfacet
  facet normal 0.000000e+00 -1.000000e+00 -0.000000e+00
    outer loop
      vertex   1.000000e+00 1.200000e+00 1.275000e-01
      vertex   -1.000000e+00 1.200000e+00 1.468270e-16
      vertex   1.000000e+00 1.200000e+00 1.468270e-16
    endloop
  endfacet
  facet normal -7.071068e-01 0.000000e+00 7.071068e-01
    outer loop
      vertex   -5.000000e-01 -1.200000e+00 6.275000e-01
      vertex   -1.000000e+00 -1.200000e+00 1.275000e-01
      vertex   -5.000000e-01 -1.625000e+00 6.275000e-01
    endloop
  endfacet
  facet normal -7.071068e-01 0.000000e+00 7.071068e-01
    outer loop
      vertex   -5.000000e-01 -1.625000e+00 6.275000e-01
      vertex   -1.000000e+00 -1.200000e+00 1.275000e-01
      vertex   -1.000000e+00 -1.625000e+00 1.275000e-01
    endloop
  endfacet
  facet normal -0.000000e+00 0.000000e+00 1.000000e+00
    outer loop
      vertex   -5.000000e-01 -1.200000e+00 6.275000e-01
      vertex   -5.000000e-01 -1.625000e+00 6.275000e-01
      vertex   -2.500000e-01 -1.200000e+00 6.275000e-01
    endloop
  endfacet
  facet normal 0.000000e+00 0.000000e+00 1.000000e+00
    outer loop
      vertex   -2.500000e-01 -1.200000e+00 6.275000e-01
      vertex   -5.000000e-01 -1.625000e+00 6.275000e-01
      vertex   -2.500000e-01 -1.625000e+00 6.275000e-01
    endloop
  endfacet
  facet normal 0.000000e+00 -1.000000e+00 0.000000e+00
    outer loop
      vertex   -1.000000e+00 -1.625000e+00 1.275000e-01
      vertex   -1.000000e+00 -1.625000e+00 0.000000e+00
      vertex   -5.000000e-01 -1.625000e+00 6.275000e-01
    endloop
  endfacet
  facet normal 0.000000e+00 -1.000000e+00 -0.000000e+00
    outer loop
      vertex   -5.000000e-01 -1.625000e+00 6.275000e-01
      vertex   -1.000000e+00 -1.625000e+00 0.000000e+00
      vertex   -2.500000e-01 -1.625000e+00 6.275000e-01
    endloop
  endfacet
  facet normal 0.000000e+00 -1.000000e+00 -0.000000e+00
    outer loop
      vertex   -2.500000e-01 -1.625000e+00 6.275000e-01
      vertex   -1.000000e+00 -1.625000e+00 0.000000e+00
      vertex   2.500000e-01 -1.625000e+00 6.275000e-01
    endloop
  endfacet
  facet normal 0.000000e+00 -1.000000e+00 -3.416071e-16
    outer loop
      vertex   -2.500000e-01 -1.625000e+00 6.275000e-01
      vertex   2.500000e-01 -1.625000e+00 6.275000e-01
      vertex   2.500000e-01 -1.625000e+00 3.877500e+00
    endloop
  endfacet
  facet normal 0.000000e+00 -1.000000e+00 0.000000e+00
    outer loop
      vertex   -1.000000e+00 -1.625000e+00 0.000000e+00
      vertex   1.000000e+00 -1.625000e+00 0.000000e+00
      vertex   2.500000e-01 -1.625000e+00 6.275000e-01
    endloop
  endfacet
  facet normal 0.000000e+00 -1.000000e+00 0.000000e+00
    outer loop
      vertex   2.500000e-01 -1.625000e+00 6.275000e-01
      vertex   1.000000e+00 -1.625000e+00 0.000000e+00
      vertex   5.000000e-01 -1.625000e+00 6.275000e-01
    endloop
  endfacet
  facet normal 0.000000e+00 -1.000000e+00 0.000000e+00
    outer loop
      vertex   5.000000e-01 -1.625000e+00 6.275000e-01
      vertex   1.000000e+00 -1.625000e+00 0.000000e+00
      vertex   1.000000e+00 -1.625000e+00 1.275000e-01
    endloop
  endfacet
  facet normal -0.000000e+00 -1.000000e+00 -3.416071e-16
    outer loop
      vertex   2.500000e-01 -1.625000e+00 3.877500e+00
      vertex   -2.500000e-01 -1.625000e+00 3.877500e+00
      vertex   -2.500000e-01 -1.625000e+00 6.275000e-01
    endloop
  endfacet
  facet normal 7.071068e-01 -1.847168e-16 7.071068e-01
    outer loop
      vertex   5.000000e-01 1.200000e+00 6.275000e-01
      vertex   1.000000e+00 1.200000e+00 1.275000e-01
      vertex   5.000000e-01 1.625000e+00 6.275000e-01
    endloop
  endfacet
  facet normal 7.071068e-01 -9.235838e-17 7.071068e-01
    outer loop
      vertex   5.000000e-01 1.625000e+00 6.275000e-01
      vertex   1.000000e+00 1.200000e+00 1.275000e-01
      vertex   1.000000e+00 1.625000e+00 1.275000e-01
    endloop
  endfacet
  facet normal -4.440892e-16 -2.612289e-16 1.000000e+00
    outer loop
      vertex   5.000000e-01 1.200000e+00 6.275000e-01
      vertex   5.000000e-01 1.625000e+00 6.275000e-01
      vertex   2.500000e-01 1.200000e+00 6.275000e-01
    endloop
  endfacet
  facet normal 2.220446e-15 -1.828603e-15 1.000000e+00
    outer loop
      vertex   2.500000e-01 1.200000e+00 6.275000e-01
      vertex   5.000000e-01 1.625000e+00 6.275000e-01
      vertex   2.500000e-01 1.625000e+00 6.275000e-01
    endloop
  endfacet
  facet normal 7.071068e-01 -0.000000e+00 7.071068e-01
    outer loop
      vertex   5.000000e-01 -1.625000e+00 6.275000e-01
      vertex   1.000000e+00 -1.625000e+00 1.275000e-01
      vertex   5.000000e-01 -1.200000e+00 6.275000e-01
    endloop
  endfacet
  facet normal 7.071068e-01 0.000000e+00 7.071068e-01
    outer loop
      vertex   5.000000e-01 -1.200000e+00 6.275000e-01
      vertex   1.000000e+00 -1.625000e+00 1.275000e-01
      vertex   1.000000e+00 -1.200000e+00 1.275000e-01
    endloop
  endfacet
  facet normal 0.000000e+00 -0.000000e+00 1.000000e+00
    outer loop
      vertex   5.000000e-01 -1.625000e+00 6.275000e-01
      vertex   5.000000e-01 -1.200000e+00 6.275000e-01
      vertex   2.500000e-01 -1.625000e+00 6.275000e-01
    endloop
  endfacet
  facet normal 0.000000e+00 0.000000e+00 1.000000e+00
    outer loop
      vertex   2.500000e-01 -1.625000e+00 6.275000e-01
      vertex   5.000000e-01 -1.200000e+00 6.275000e-01
      vertex   2.500000e-01 -1.200000e+00 6.275000e-01
    endloop
  endfacet
  facet normal -1.000000e+00 0.000000e+00 -0.000000e+00
    outer loop
      vertex   -1.000000e+00 1.625000e+00 1.275000e-01
      vertex   -1.000000e+00 1.625000e+00 1.990075e-16
      vertex   -1.000000e+00 1.200000e+00 1.275000e-01
    endloop
  endfacet
  facet normal -1.000000e+00 0.000000e+00 0.000000e+00
    outer loop
      vertex   -1.000000e+00 1.200000e+00 1.275000e-01
      vertex   -1.000000e+00 1.625000e+00 1.990075e-16
      vertex   -1.000000e+00 1.200000e+00 1.468270e-16
    endloop
  endfacet
  facet normal 0.000000e+00 1.227776e-16 -1.000000e+00
    outer loop
      vertex   1.000000e+00 1.625000e+00 1.990075e-16
      vertex   1.000000e+00 1.200000e+00 1.468270e-16
      vertex   -1.000000e+00 1.625000e+00 1.990075e-16
    endloop
  endfacet
  facet normal 0.000000e+00 1.227776e-16 -1.000000e+00
    outer loop
      vertex   -1.000000e+00 1.625000e+00 1.990075e-16
      vertex   1.000000e+00 1.200000e+00 1.468270e-16
      vertex   -1.000000e+00 1.200000e+00 1.468270e-16
    endloop
  endfacet
  facet normal 1.000000e+00 -0.000000e+00 0.000000e+00
    outer loop
      vertex   1.000000e+00 1.200000e+00 1.275000e-01
      vertex   1.000000e+00 1.200000e+00 1.468270e-16
      vertex   1.000000e+00 1.625000e+00 1.275000e-01
    endloop
  endfacet
  facet normal 1.000000e+00 0.000000e+00 0.000000e+00
    outer loop
      vertex   1.000000e+00 1.625000e+00 1.275000e-01
      vertex   1.000000e+00 1.200000e+00 1.468270e-16
      vertex   1.000000e+00 1.625000e+00 1.990075e-16
    endloop
  endfacet
  facet normal -1.000000e+00 -0.000000e+00 -0.000000e+00
    outer loop
      vertex   -1.000000e+00 -1.200000e+00 1.275000e-01
      vertex   -1.000000e+00 -1.200000e+00 0.000000e+00
      vertex   -1.000000e+00 -1.625000e+00 1.275000e-01
    endloop
  endfacet
  facet normal -1.000000e+00 0.000000e+00 0.000000e+00
    outer loop
      vertex   -1.000000e+00 -1.625000e+00 1.275000e-01
      vertex   -1.000000e+00 -1.200000e+00 0.000000e+00
      vertex   -1.000000e+00 -1.625000e+00 0.000000e+00
    endloop
  endfacet
  facet normal -0.000000e+00 1.000000e+00 0.000000e+00
    outer loop
      vertex   -5.000000e-01 -1.200000e+00 6.275000e-01
      vertex   -2.500000e-01 -1.200000e+00 6.275000e-01
      vertex   -1.000000e+00 -1.200000e+00 1.275000e-01
    endloop
  endfacet
  facet normal 0.000000e+00 1.000000e+00 0.000000e+00
    outer loop
      vertex   -1.000000e+00 -1.200000e+00 1.275000e-01
      vertex   -2.500000e-01 -1.200000e+00 6.275000e-01
      vertex   1.000000e+00 -1.200000e+00 1.275000e-01
    endloop
  endfacet
  facet normal -0.000000e+00 1.000000e+00 0.000000e+00
    outer loop
      vertex   -1.000000e+00 -1.200000e+00 1.275000e-01
      vertex   1.000000e+00 -1.200000e+00 1.275000e-01
      vertex   -1.000000e+00 -1.200000e+00 0.000000e+00
    endloop
  endfacet
  facet normal 0.000000e+00 1.000000e+00 0.000000e+00
    outer loop
      vertex   -1.000000e+00 -1.200000e+00 0.000000e+00
      vertex   1.000000e+00 -1.200000e+00 1.275000e-01
      vertex   1.000000e+00 -1.200000e+00 0.000000e+00
    endloop
  endfacet
  facet normal -0.000000e+00 1.000000e+00 0.000000e+00
    outer loop
      vertex   -2.500000e-01 -1.200000e+00 6.275000e-01
      vertex   2.500000e-01 -1.200000e+00 6.275000e-01
      vertex   1.000000e+00 -1.200000e+00 1.275000e-01
    endloop
  endfacet
  facet normal 0.000000e+00 1.000000e+00 0.000000e+00
    outer loop
      vertex   1.000000e+00 -1.200000e+00 1.275000e-01
      vertex   2.500000e-01 -1.200000e+00 6.275000e-01
      vertex   5.000000e-01 -1.200000e+00 6.275000e-01
    endloop
  endfacet
  facet normal -0.000000e+00 -0.000000e+00 -1.000000e+00
    outer loop
      vertex   1.000000e+00 -1.200000e+00 0.000000e+00
      vertex   1.000000e+00 -1.625000e+00 0.000000e+00
      vertex   -1.000000e+00 -1.200000e+00 0.000000e+00
    endloop
  endfacet
  facet normal 0.000000e+00 0.000000e+00 -1.000000e+00
    outer loop
      vertex   -1.000000e+00 -1.200000e+00 0.000000e+00
      vertex   1.000000e+00 -1.625000e+00 0.000000e+00
      vertex   -1.000000e+00 -1.625000e+00 0.000000e+00
    endloop
  endfacet
  facet normal 1.000000e+00 -0.000000e+00 0.000000e+00
    outer loop
      vertex   1.000000e+00 -1.625000e+00 1.275000e-01
      vertex   1.000000e+00 -1.625000e+00 0.000000e+00
      vertex   1.000000e+00 -1.200000e+00 1.275000e-01
    endloop
  endfacet
  facet normal 1.000000e+00 0.000000e+00 0.000000e+00
    outer loop
      vertex   1.000000e+00 -1.200000e+00 1.275000e-01
      vertex   1.000000e+00 -1.625000e+00 0.000000e+00
      vertex   1.000000e+00 -1.200000e+00 0.000000e+00
    endloop
  endfacet
  facet normal -0.000000e+00 -0.000000e+00 -1.000000e+00
    outer loop
      vertex   2.500000e-01 1.200000e+00 6.275000e-01
      vertex   2.500000e-01 -1.200000e+00 6.275000e-01
      vertex   -2.500000e-01 1.200000e+00 6.275000e-01
    endloop
  endfacet
  facet normal 0.000000e+00 0.000000e+00 -1.000000e+00
    outer loop
      vertex   -2.500000e-01 1.200000e+00 6.275000e-01
      vertex   2.500000e-01 -1.200000e+00 6.275000e-01
      vertex   -2.500000e-01 -1.200000e+00 6.275000e-01
    endloop
  endfacet
  facet normal -1.000000e+00 0.000000e+00 0.000000e+00
    outer loop
      vertex   -2.500000e-01 1.250000e+00 3.502500e+00
      vertex   -2.500000e-01 -1.250000e+00 3.502500e+00
      vertex   -2.500000e-01 -1.625000e+00 3.877500e+00
    endloop
  endfacet
  facet normal -1.000000e+00 0.000000e+00 0.000000e+00
    outer loop
      vertex   -2.500000e-01 -1.625000e+00 3.877500e+00
      vertex   -2.500000e-01 -1.250000e+00 3.502500e+00
      vertex   -2.500000e-01 -1.250000e+00 1.002500e+00
    endloop
  endfacet
  facet normal -1.000000e+00 0.000000e+00 0.000000e+00
    outer loop
      vertex   -2.500000e-01 -1.625000e+00 3.877500e+00
      vertex   -2.500000e-01 -1.250000e+00 1.002500e+00
      vertex   -2.500000e-01 -1.625000e+00 6.275000e-01
    endloop
  endfacet
  facet normal -1.000000e+00 0.000000e+00 0.000000e+00
    outer loop
      vertex   -2.500000e-01 -1.625000e+00 6.275000e-01
      vertex   -2.500000e-01 -1.250000e+00 1.002500e+00
      vertex   -2.500000e-01 -1.200000e+00 6.275000e-01
    endloop
  endfacet
  facet normal -1.000000e+00 0.000000e+00 0.000000e+00
    outer loop
      vertex   -2.500000e-01 -1.200000e+00 6.275000e-01
      vertex   -2.500000e-01 -1.250000e+00 1.002500e+00
      vertex   -2.500000e-01 1.200000e+00 6.275000e-01
    endloop
  endfacet
  facet normal -1.000000e+00 0.000000e+00 0.000000e+00
    outer loop
      vertex   -2.500000e-01 1.200000e+00 6.275000e-01
      vertex   -2.500000e-01 -1.250000e+00 1.002500e+00
      vertex   -2.500000e-01 1.250000e+00 1.002500e+00
    endloop
  endfacet
  facet normal -1.000000e+00 0.000000e+00 0.000000e+00
    outer loop
      vertex   -2.500000e-01 1.200000e+00 6.275000e-01
      vertex   -2.500000e-01 1.250000e+00 1.002500e+00
      vertex   -2.500000e-01 1.625000e+00 6.275000e-01
    endloop
  endfacet
  facet normal -1.000000e+00 0.000000e+00 0.000000e+00
    outer loop
      vertex   -2.500000e-01 1.625000e+00 6.275000e-01
      vertex   -2.500000e-01 1.250000e+00 1.002500e+00
      vertex   -2.500000e-01 1.250000e+00 3.502500e+00
    endloop
  endfacet
  facet normal -1.000000e+00 0.000000e+00 0.000000e+00
    outer loop
      vertex   -2.500000e-01 1.625000e+00 6.275000e-01
      vertex   -2.500000e-01 1.250000e+00 3.502500e+00
      vertex   -2.500000e-01 1.625000e+00 3.877500e+00
    endloop
  endfacet
  facet normal -1.000000e+00 -0.000000e+00 0.000000e+00
    outer loop
      vertex   -2.500000e-01 1.625000e+00 3.877500e+00
      vertex   -2.500000e-01 1.250000e+00 3.502500e+00
      vertex   -2.500000e-01 -1.625000e+00 3.877500e+00
    endloop
  endfacet
  facet normal 0.000000e+00 2.664535e-16 1.000000e+00
    outer loop
      vertex   2.500000e-01 -1.250000e+00 1.002500e+00
      vertex   2.500000e-01 1.250000e+00 1.002500e+00
      vertex   -2.500000e-01 -1.250000e+00 1.002500e+00
    endloop
  endfacet
  facet normal 0.000000e+00 2.664535e-16 1.000000e+00
    outer loop
      vertex   -2.500000e-01 -1.250000e+00 1.002500e+00
      vertex   2.500000e-01 1.250000e+00 1.002500e+00
      vertex   -2.500000e-01 1.250000e+00 1.002500e+00
    endloop
  endfacet
  facet normal 0.000000e+00 -1.000000e+00 2.664535e-16
    outer loop
      vertex   2.500000e-01 1.250000e+00 1.002500e+00
      vertex   2.500000e-01 1.250000e+00 3.502500e+00
      vertex   -2.500000e-01 1.250000e+00 1.002500e+00
    endloop
  endfacet
  facet normal 0.000000e+00 -1.000000e+00 2.664535e-16
    outer loop
      vertex   -2.500000e-01 1.250000e+00 1.002500e+00
      vertex   2.500000e-01 1.250000e+00 3.502500e+00
      vertex   -2.500000e-01 1.250000e+00 3.502500e+00
    endloop
  endfacet
  facet normal -0.000000e+00 -0.000000e+00 -1.000000e+00
    outer loop
      vertex   2.500000e-01 1.250000e+00 3.502500e+00
      vertex   2.500000e-01 -1.250000e+00 3.502500e+00
      vertex   -2.500000e-01 1.250000e+00 3.502500e+00
    endloop
  endfacet
  facet normal 0.000000e+00 0.000000e+00 -1.000000e+00
    outer loop
      vertex   -2.500000e-01 1.250000e+00 3.502500e+00
      vertex   2.500000e-01 -1.250000e+00 3.502500e+00
      vertex   -2.500000e-01 -1.250000e+00 3.502500e+00
    endloop
  endfacet
  facet normal 0.000000e+00 1.000000e+00 0.000000e+00
    outer loop
      vertex   2.500000e-01 -1.250000e+00 3.502500e+00
      vertex   2.500000e-01 -1.250000e+00 1.002500e+00
      vertex   -2.500000e-01 -1.250000e+00 3.502500e+00
    endloop
  endfacet
  facet normal 0.000000e+00 1.000000e+00 0.000000e+00
    outer loop
      vertex   -2.500000e-01 -1.250000e+00 3.502500e+00
      vertex   2.500000e-01 -1.250000e+00 1.002500e+00
      vertex   -2.500000e-01 -1.250000e+00 1.002500e+00
    endloop
  endfacet
  facet normal 0.000000e+00 -0.000000e+00 1.000000e+00
    outer loop
      vertex   2.500000e-01 -1.625000e+00 3.877500e+00
      vertex   2.500000e-01 1.625000e+00 3.877500e+00
      vertex   -2.500000e-01 -1.625000e+00 3.877500e+00
    endloop
  endfacet
  facet normal 0.000000e+00 0.000000e+00 1.000000e+00
    outer loop
      vertex   -2.500000e-01 -1.625000e+00 3.877500e+00
      vertex   2.500000e-01 1.625000e+00 3.877500e+00
      vertex   -2.500000e-01 1.625000e+00 3.877500e+00
    endloop
  endfacet
  facet normal -0.000000e+00 1.000000e+00 0.000000e+00
    outer loop
      vertex   -1.000000e+00 1.625000e+00 1.275000e-01
      vertex   -5.000000e-01 1.625000e+00 6.275000e-01
      vertex   -1.000000e+00 1.625000e+00 1.990075e-16
    endloop
  endfacet
  facet normal -4.440892e-15 1.000000e+00 3.538559e-15
    outer loop
      vertex   -1.000000e+00 1.625000e+00 1.990075e-16
      vertex   -5.000000e-01 1.625000e+00 6.275000e-01
      vertex   -2.500000e-01 1.625000e+00 6.275000e-01
    endloop
  endfacet
  facet normal 0.000000e+00 1.000000e+00 -1.769280e-15
    outer loop
      vertex   -1.000000e+00 1.625000e+00 1.990075e-16
      vertex   -2.500000e-01 1.625000e+00 6.275000e-01
      vertex   2.500000e-01 1.625000e+00 6.275000e-01
    endloop
  endfacet
  facet normal 0.000000e+00 1.000000e+00 3.416071e-16
    outer loop
      vertex   2.500000e-01 1.625000e+00 6.275000e-01
      vertex   -2.500000e-01 1.625000e+00 6.275000e-01
      vertex   -2.500000e-01 1.625000e+00 3.877500e+00
    endloop
  endfacet
  facet normal 0.000000e+00 1.000000e+00 3.416071e-16
    outer loop
      vertex   2.500000e-01 1.625000e+00 6.275000e-01
      vertex   -2.500000e-01 1.625000e+00 3.877500e+00
      vertex   2.500000e-01 1.625000e+00 3.877500e+00
    endloop
  endfacet
  facet normal 0.000000e+00 1.000000e+00 -1.769280e-15
    outer loop
      vertex   -1.000000e+00 1.625000e+00 1.990075e-16
      vertex   2.500000e-01 1.625000e+00 6.275000e-01
      vertex   1.000000e+00 1.625000e+00 1.990075e-16
    endloop
  endfacet
  facet normal 4.440892e-15 1.000000e+00 3.538559e-15
    outer loop
      vertex   1.000000e+00 1.625000e+00 1.990075e-16
      vertex   2.500000e-01 1.625000e+00 6.275000e-01
      vertex   5.000000e-01 1.625000e+00 6.275000e-01
    endloop
  endfacet
  facet normal 0.000000e+00 1.000000e+00 -0.000000e+00
    outer loop
      vertex   1.000000e+00 1.625000e+00 1.990075e-16
      vertex   5.000000e-01 1.625000e+00 6.275000e-01
      vertex   1.000000e+00 1.625000e+00 1.275000e-01
    endloop
  endfacet
  facet normal 1.000000e+00 0.000000e+00 0.000000e+00
    outer loop
      vertex   2.500000e-01 -1.250000e+00 3.502500e+00
      vertex   2.500000e-01 -1.625000e+00 6.275000e-01
      vertex   2.500000e-01 -1.250000e+00 1.002500e+00
    endloop
  endfacet
  facet normal 1.000000e+00 0.000000e+00 0.000000e+00
    outer loop
      vertex   2.500000e-01 -1.250000e+00 1.002500e+00
      vertex   2.500000e-01 -1.625000e+00 6.275000e-01
      vertex   2.500000e-01 -1.200000e+00 6.275000e-01
    endloop
  endfacet
  facet normal 1.000000e+00 0.000000e+00 0.000000e+00
    outer loop
      vertex   2.500000e-01 -1.250000e+00 1.002500e+00
      vertex   2.500000e-01 -1.200000e+00 6.275000e-01
      vertex   2.500000e-01 1.200000e+00 6.275000e-01
    endloop
  endfacet
  facet normal 1.000000e+00 0.000000e+00 -0.000000e+00
    outer loop
      vertex   2.500000e-01 -1.625000e+00 6.275000e-01
      vertex   2.500000e-01 -1.250000e+00 3.502500e+00
      vertex   2.500000e-01 -1.625000e+00 3.877500e+00
    endloop
  endfacet
  facet normal 1.000000e+00 0.000000e+00 0.000000e+00
    outer loop
      vertex   2.500000e-01 -1.625000e+00 3.877500e+00
      vertex   2.500000e-01 -1.250000e+00 3.502500e+00
      vertex   2.500000e-01 1.250000e+00 3.502500e+00
    endloop
  endfacet
  facet normal 1.000000e+00 -0.000000e+00 0.000000e+00
    outer loop
      vertex   2.500000e-01 -1.625000e+00 3.877500e+00
      vertex   2.500000e-01 1.250000e+00 3.502500e+00
      vertex   2.500000e-01 1.625000e+00 3.877500e+00
    endloop
  endfacet
  facet normal 1.000000e+00 0.000000e+00 0.000000e+00
    outer loop
      vertex   2.500000e-01 1.625000e+00 3.877500e+00
      vertex   2.500000e-01 1.250000e+00 3.502500e+00
      vertex   2.500000e-01 1.250000e+00 1.002500e+00
    endloop
  endfacet
  facet normal 1.000000e+00 0.000000e+00 0.000000e+00
    outer loop
      vertex   2.500000e-01 1.625000e+00 3.877500e+00
      vertex   2.500000e-01 1.250000e+00 1.002500e+00
      vertex   2.500000e-01 1.625000e+00 6.275000e-01
    endloop
  endfacet
  facet normal 1.000000e+00 0.000000e+00 0.000000e+00
    outer loop
      vertex   2.500000e-01 1.625000e+00 6.275000e-01
      vertex   2.500000e-01 1.250000e+00 1.002500e+00
      vertex   2.500000e-01 1.200000e+00 6.275000e-01
    endloop
  endfacet
  facet normal 1.000000e+00 0.000000e+00 -0.000000e+00
    outer loop
      vertex   2.500000e-01 1.200000e+00 6.275000e-01
      vertex   2.500000e-01 1.250000e+00 1.002500e+00
      vertex   2.500000e-01 -1.250000e+00 1.002500e+00
    endloop
  endfacet
endsolid
