solid 
facet normal -1 0 0
 outer loop
  vertex 0.19999999 -0.1165 0.235
  vertex 0.19999999 0.1165 0.235
  vertex 0.19999999 -0.1165 0
 endloop
endfacet
facet normal -1 -0 0
 outer loop
  vertex 0.19999999 -0.1165 0
  vertex 0.19999999 0.1165 0.235
  vertex 0.19999999 0.1165 0
 endloop
endfacet
facet normal 1 -0 0
 outer loop
  vertex 0.205 0.1215 -0.005
  vertex 0.205 0.1215 0.24
  vertex 0.205 -0.1215 -0.005
 endloop
endfacet
facet normal 1 -0 0
 outer loop
  vertex 0.205 -0.1215 -0.005
  vertex 0.205 0.1215 0.24
  vertex 0.205 -0.1215 0.24
 endloop
endfacet
facet normal -1 0 0
 outer loop
  vertex -1 0.1165 0.235
  vertex -1 0.1215 -0.005
  vertex -1 0.1165 0
 endloop
endfacet
facet normal -1 0 0
 outer loop
  vertex -1 0.1165 0
  vertex -1 0.1215 -0.005
  vertex -1 -0.1215 -0.005
 endloop
endfacet
facet normal -1 0 -0
 outer loop
  vertex -1 0.1165 0
  vertex -1 -0.1215 -0.005
  vertex -1 -0.1165 0
 endloop
endfacet
facet normal -1 0 0
 outer loop
  vertex -1 -0.1165 0
  vertex -1 -0.1215 -0.005
  vertex -1 -0.1215 0.24
 endloop
endfacet
facet normal -1 -0 -0
 outer loop
  vertex -1 -0.1165 0
  vertex -1 -0.1215 0.24
  vertex -1 -0.1165 0.235
 endloop
endfacet
facet normal -1 -0 -0
 outer loop
  vertex -1 -0.1165 0.235
  vertex -1 -0.1215 0.24
  vertex -1 0.1165 0.235
 endloop
endfacet
facet normal -1 -0 -0
 outer loop
  vertex -1 0.1165 0.235
  vertex -1 -0.1215 0.24
  vertex -1 0.1215 0.24
 endloop
endfacet
facet normal -1 -0 0
 outer loop
  vertex -1 0.1165 0.235
  vertex -1 0.1215 0.24
  vertex -1 0.1215 -0.005
 endloop
endfacet
facet normal 0 0 -1
 outer loop
  vertex 0.19999999 0.1165 0.235
  vertex 0.19999999 -0.1165 0.235
  vertex -1 0.1165 0.235
 endloop
endfacet
facet normal 0 0 -1
 outer loop
  vertex -1 0.1165 0.235
  vertex 0.19999999 -0.1165 0.235
  vertex -1 -0.1165 0.235
 endloop
endfacet
facet normal -0 1 0
 outer loop
  vertex 0.19999999 -0.1165 0.235
  vertex 0.19999999 -0.1165 0
  vertex -1 -0.1165 0.235
 endloop
endfacet
facet normal 0 1 -0
 outer loop
  vertex -1 -0.1165 0.235
  vertex 0.19999999 -0.1165 0
  vertex -1 -0.1165 0
 endloop
endfacet
facet normal -0 0 1
 outer loop
  vertex 0.19999999 -0.1165 0
  vertex 0.19999999 0.1165 0
  vertex -1 -0.1165 0
 endloop
endfacet
facet normal -0 0 1
 outer loop
  vertex -1 -0.1165 0
  vertex 0.19999999 0.1165 0
  vertex -1 0.1165 0
 endloop
endfacet
facet normal 0 -1 0
 outer loop
  vertex 0.19999999 0.1165 0
  vertex 0.19999999 0.1165 0.235
  vertex -1 0.1165 0
 endloop
endfacet
facet normal 0 -1 -0
 outer loop
  vertex -1 0.1165 0
  vertex 0.19999999 0.1165 0.235
  vertex -1 0.1165 0.235
 endloop
endfacet
facet normal -0 1 0
 outer loop
  vertex 0.205 0.1215 0.24
  vertex 0.205 0.1215 -0.005
  vertex -1 0.1215 0.24
 endloop
endfacet
facet normal 0 1 -0
 outer loop
  vertex -1 0.1215 0.24
  vertex 0.205 0.1215 -0.005
  vertex -1 0.1215 -0.005
 endloop
endfacet
facet normal 0 0 -1
 outer loop
  vertex 0.205 0.1215 -0.005
  vertex 0.205 -0.1215 -0.005
  vertex -1 0.1215 -0.005
 endloop
endfacet
facet normal 0 0 -1
 outer loop
  vertex -1 0.1215 -0.005
  vertex 0.205 -0.1215 -0.005
  vertex -1 -0.1215 -0.005
 endloop
endfacet
facet normal 0 -1 0
 outer loop
  vertex 0.205 -0.1215 -0.005
  vertex 0.205 -0.1215 0.24
  vertex -1 -0.1215 -0.005
 endloop
endfacet
facet normal 0 -1 -0
 outer loop
  vertex -1 -0.1215 -0.005
  vertex 0.205 -0.1215 0.24
  vertex -1 -0.1215 0.24
 endloop
endfacet
facet normal -0 0 1
 outer loop
  vertex 0.205 -0.1215 0.24
  vertex 0.205 0.1215 0.24
  vertex -1 -0.1215 0.24
 endloop
endfacet
facet normal -0 0 1
 outer loop
  vertex -1 -0.1215 0.24
  vertex 0.205 0.1215 0.24
  vertex -1 0.1215 0.24
 endloop
endfacet
endsolid 
