solid 
facet normal -1 0 0
 outer loop
  vertex 2 -1.1650001 2.3500001
  vertex 2 1.1650001 2.3500001
  vertex 2 -1.1650001 0
 endloop
endfacet
facet normal -1 -0 0
 outer loop
  vertex 2 -1.1650001 0
  vertex 2 1.1650001 2.3500001
  vertex 2 1.1650001 0
 endloop
endfacet
facet normal 1 -0 0
 outer loop
  vertex 2.0500002 1.215 -0.05
  vertex 2.0500002 1.215 2.4
  vertex 2.0500002 -1.215 -0.05
 endloop
endfacet
facet normal 1 -0 0
 outer loop
  vertex 2.0500002 -1.215 -0.05
  vertex 2.0500002 1.215 2.4
  vertex 2.0500002 -1.215 2.4
 endloop
endfacet
facet normal -1 0 0
 outer loop
  vertex -10 1.1650001 2.3500001
  vertex -10 1.215 -0.05
  vertex -10 1.1650001 0
 endloop
endfacet
facet normal -1 0 0
 outer loop
  vertex -10 1.1650001 0
  vertex -10 1.215 -0.05
  vertex -10 -1.215 -0.05
 endloop
endfacet
facet normal -1 0 -0
 outer loop
  vertex -10 1.1650001 0
  vertex -10 -1.215 -0.05
  vertex -10 -1.1650001 0
 endloop
endfacet
facet normal -1 0 0
 outer loop
  vertex -10 -1.1650001 0
  vertex -10 -1.215 -0.05
  vertex -10 -1.215 2.4
 endloop
endfacet
facet normal -1 -0 -0
 outer loop
  vertex -10 -1.1650001 0
  vertex -10 -1.215 2.4
  vertex -10 -1.1650001 2.3500001
 endloop
endfacet
facet normal -1 -0 -0
 outer loop
  vertex -10 -1.1650001 2.3500001
  vertex -10 -1.215 2.4
  vertex -10 1.1650001 2.3500001
 endloop
endfacet
facet normal -1 -0 -0
 outer loop
  vertex -10 1.1650001 2.3500001
  vertex -10 -1.215 2.4
  vertex -10 1.215 2.4
 endloop
endfacet
facet normal -1 -0 0
 outer loop
  vertex -10 1.1650001 2.3500001
  vertex -10 1.215 2.4
  vertex -10 1.215 -0.05
 endloop
endfacet
facet normal 0 0 -1
 outer loop
  vertex 2 1.1650001 2.3500001
  vertex 2 -1.1650001 2.3500001
  vertex -10 1.1650001 2.3500001
 endloop
endfacet
facet normal 0 0 -1
 outer loop
  vertex -10 1.1650001 2.3500001
  vertex 2 -1.1650001 2.3500001
  vertex -10 -1.1650001 2.3500001
 endloop
endfacet
facet normal -0 1 0
 outer loop
  vertex 2 -1.1650001 2.3500001
  vertex 2 -1.1650001 0
  vertex -10 -1.1650001 2.3500001
 endloop
endfacet
facet normal 0 1 -0
 outer loop
  vertex -10 -1.1650001 2.3500001
  vertex 2 -1.1650001 0
  vertex -10 -1.1650001 0
 endloop
endfacet
facet normal -0 0 1
 outer loop
  vertex 2 -1.1650001 0
  vertex 2 1.1650001 0
  vertex -10 -1.1650001 0
 endloop
endfacet
facet normal -0 0 1
 outer loop
  vertex -10 -1.1650001 0
  vertex 2 1.1650001 0
  vertex -10 1.1650001 0
 endloop
endfacet
facet normal 0 -1 0
 outer loop
  vertex 2 1.1650001 0
  vertex 2 1.1650001 2.3500001
  vertex -10 1.1650001 0
 endloop
endfacet
facet normal 0 -1 -0
 outer loop
  vertex -10 1.1650001 0
  vertex 2 1.1650001 2.3500001
  vertex -10 1.1650001 2.3500001
 endloop
endfacet
facet normal -0 1 0
 outer loop
  vertex 2.0500002 1.215 2.4
  vertex 2.0500002 1.215 -0.05
  vertex -10 1.215 2.4
 endloop
endfacet
facet normal 0 1 -0
 outer loop
  vertex -10 1.215 2.4
  vertex 2.0500002 1.215 -0.05
  vertex -10 1.215 -0.05
 endloop
endfacet
facet normal 0 0 -1
 outer loop
  vertex 2.0500002 1.215 -0.05
  vertex 2.0500002 -1.215 -0.05
  vertex -10 1.215 -0.05
 endloop
endfacet
facet normal 0 0 -1
 outer loop
  vertex -10 1.215 -0.05
  vertex 2.0500002 -1.215 -0.05
  vertex -10 -1.215 -0.05
 endloop
endfacet
facet normal 0 -1 0
 outer loop
  vertex 2.0500002 -1.215 -0.05
  vertex 2.0500002 -1.215 2.4
  vertex -10 -1.215 -0.05
 endloop
endfacet
facet normal 0 -1 -0
 outer loop
  vertex -10 -1.215 -0.05
  vertex 2.0500002 -1.215 2.4
  vertex -10 -1.215 2.4
 endloop
endfacet
facet normal -0 0 1
 outer loop
  vertex 2.0500002 -1.215 2.4
  vertex 2.0500002 1.215 2.4
  vertex -10 -1.215 2.4
 endloop
endfacet
facet normal -0 0 1
 outer loop
  vertex -10 -1.215 2.4
  vertex 2.0500002 1.215 2.4
  vertex -10 1.215 2.4
 endloop
endfacet
endsolid 
